<mxfile host="app.diagrams.net" agent="Mozilla/5.0 (Windows NT 10.0; Win64; x64) AppleWebKit/537.36 (KHTML, like Gecko) Chrome/132.0.0.0 Safari/537.36" version="28.2.0">
  <diagram name="Page-1" id="X3Anfkmce7VYxYFne6en">
    <mxGraphModel dx="786" dy="451" grid="1" gridSize="10" guides="1" tooltips="1" connect="1" arrows="1" fold="1" page="1" pageScale="1" pageWidth="827" pageHeight="1169" math="0" shadow="0">
      <root>
        <mxCell id="0" />
        <mxCell id="1" parent="0" />
        <mxCell id="vWwmWm6K_lCa22NEaNsi-19" value="" style="verticalLabelPosition=bottom;shadow=0;dashed=0;align=center;html=1;verticalAlign=top;shape=mxgraph.electrical.logic_gates.logic_gate;operation=or;" vertex="1" parent="1">
          <mxGeometry x="140" y="80" width="100" height="60" as="geometry" />
        </mxCell>
        <mxCell id="vWwmWm6K_lCa22NEaNsi-20" value="" style="verticalLabelPosition=bottom;shadow=0;dashed=0;align=center;html=1;verticalAlign=top;shape=mxgraph.electrical.logic_gates.logic_gate;operation=and;" vertex="1" parent="1">
          <mxGeometry x="300" y="140" width="100" height="60" as="geometry" />
        </mxCell>
        <mxCell id="vWwmWm6K_lCa22NEaNsi-21" style="edgeStyle=orthogonalEdgeStyle;rounded=0;orthogonalLoop=1;jettySize=auto;html=1;exitX=1;exitY=0.5;exitDx=0;exitDy=0;exitPerimeter=0;entryX=0;entryY=0.25;entryDx=0;entryDy=0;entryPerimeter=0;" edge="1" parent="1" source="vWwmWm6K_lCa22NEaNsi-19" target="vWwmWm6K_lCa22NEaNsi-20">
          <mxGeometry relative="1" as="geometry" />
        </mxCell>
        <mxCell id="vWwmWm6K_lCa22NEaNsi-22" value="Food" style="text;html=1;align=center;verticalAlign=middle;resizable=0;points=[];autosize=1;strokeColor=none;fillColor=none;" vertex="1" parent="1">
          <mxGeometry x="90" y="78" width="50" height="30" as="geometry" />
        </mxCell>
        <mxCell id="vWwmWm6K_lCa22NEaNsi-23" value="Drink&amp;nbsp;" style="text;html=1;align=center;verticalAlign=middle;resizable=0;points=[];autosize=1;strokeColor=none;fillColor=none;" vertex="1" parent="1">
          <mxGeometry x="90" y="108" width="50" height="30" as="geometry" />
        </mxCell>
        <mxCell id="vWwmWm6K_lCa22NEaNsi-24" value="Student&amp;nbsp;" style="text;html=1;align=center;verticalAlign=middle;resizable=0;points=[];autosize=1;strokeColor=none;fillColor=none;" vertex="1" parent="1">
          <mxGeometry x="240" y="170" width="70" height="30" as="geometry" />
        </mxCell>
        <mxCell id="vWwmWm6K_lCa22NEaNsi-31" value="Student Discount&amp;nbsp;" style="text;html=1;align=center;verticalAlign=middle;resizable=0;points=[];autosize=1;strokeColor=none;fillColor=none;" vertex="1" parent="1">
          <mxGeometry x="390" y="130" width="120" height="30" as="geometry" />
        </mxCell>
        <mxCell id="vWwmWm6K_lCa22NEaNsi-32" value="" style="verticalLabelPosition=bottom;shadow=0;dashed=0;align=center;html=1;verticalAlign=top;shape=mxgraph.electrical.logic_gates.logic_gate;operation=and;" vertex="1" parent="1">
          <mxGeometry x="140" y="240" width="100" height="60" as="geometry" />
        </mxCell>
        <mxCell id="vWwmWm6K_lCa22NEaNsi-33" value="" style="verticalLabelPosition=bottom;shadow=0;dashed=0;align=center;html=1;verticalAlign=top;shape=mxgraph.electrical.logic_gates.logic_gate;operation=or;" vertex="1" parent="1">
          <mxGeometry x="300" y="280" width="100" height="60" as="geometry" />
        </mxCell>
        <mxCell id="vWwmWm6K_lCa22NEaNsi-34" style="edgeStyle=orthogonalEdgeStyle;rounded=0;orthogonalLoop=1;jettySize=auto;html=1;exitX=1;exitY=0.5;exitDx=0;exitDy=0;exitPerimeter=0;entryX=0;entryY=0.25;entryDx=0;entryDy=0;entryPerimeter=0;" edge="1" parent="1" source="vWwmWm6K_lCa22NEaNsi-32" target="vWwmWm6K_lCa22NEaNsi-33">
          <mxGeometry relative="1" as="geometry" />
        </mxCell>
        <mxCell id="vWwmWm6K_lCa22NEaNsi-35" value="Food" style="text;html=1;align=center;verticalAlign=middle;resizable=0;points=[];autosize=1;strokeColor=none;fillColor=none;" vertex="1" parent="1">
          <mxGeometry x="90" y="240" width="50" height="30" as="geometry" />
        </mxCell>
        <mxCell id="vWwmWm6K_lCa22NEaNsi-36" value="Drink" style="text;html=1;align=center;verticalAlign=middle;resizable=0;points=[];autosize=1;strokeColor=none;fillColor=none;" vertex="1" parent="1">
          <mxGeometry x="90" y="270" width="50" height="30" as="geometry" />
        </mxCell>
        <mxCell id="vWwmWm6K_lCa22NEaNsi-37" value="Tax" style="text;html=1;align=center;verticalAlign=middle;resizable=0;points=[];autosize=1;strokeColor=none;fillColor=none;" vertex="1" parent="1">
          <mxGeometry x="270" y="310" width="40" height="30" as="geometry" />
        </mxCell>
        <mxCell id="vWwmWm6K_lCa22NEaNsi-38" value="Meal Discount&amp;nbsp;" style="text;html=1;align=center;verticalAlign=middle;resizable=0;points=[];autosize=1;strokeColor=none;fillColor=none;" vertex="1" parent="1">
          <mxGeometry x="364" y="270" width="100" height="30" as="geometry" />
        </mxCell>
        <mxCell id="vWwmWm6K_lCa22NEaNsi-39" value="" style="verticalLabelPosition=bottom;shadow=0;dashed=0;align=center;html=1;verticalAlign=top;shape=mxgraph.electrical.logic_gates.logic_gate;operation=or;" vertex="1" parent="1">
          <mxGeometry x="540" y="190" width="100" height="60" as="geometry" />
        </mxCell>
        <mxCell id="vWwmWm6K_lCa22NEaNsi-40" style="edgeStyle=orthogonalEdgeStyle;rounded=0;orthogonalLoop=1;jettySize=auto;html=1;exitX=1;exitY=0.5;exitDx=0;exitDy=0;exitPerimeter=0;entryX=0;entryY=0.25;entryDx=0;entryDy=0;entryPerimeter=0;" edge="1" parent="1" source="vWwmWm6K_lCa22NEaNsi-20" target="vWwmWm6K_lCa22NEaNsi-39">
          <mxGeometry relative="1" as="geometry" />
        </mxCell>
        <mxCell id="vWwmWm6K_lCa22NEaNsi-41" style="edgeStyle=orthogonalEdgeStyle;rounded=0;orthogonalLoop=1;jettySize=auto;html=1;exitX=1;exitY=0.5;exitDx=0;exitDy=0;exitPerimeter=0;entryX=0;entryY=0.75;entryDx=0;entryDy=0;entryPerimeter=0;" edge="1" parent="1" source="vWwmWm6K_lCa22NEaNsi-33" target="vWwmWm6K_lCa22NEaNsi-39">
          <mxGeometry relative="1" as="geometry" />
        </mxCell>
        <mxCell id="vWwmWm6K_lCa22NEaNsi-42" value="Total" style="text;html=1;align=center;verticalAlign=middle;resizable=0;points=[];autosize=1;strokeColor=none;fillColor=none;" vertex="1" parent="1">
          <mxGeometry x="635" y="188" width="50" height="30" as="geometry" />
        </mxCell>
      </root>
    </mxGraphModel>
  </diagram>
</mxfile>
